# xmcd
#
# Track frame offsets:
#  150
#  12493
#  27747
#  41606
#  57092
#  69997
#  95197
#  108440
#  126633
#  140996
#  153994
#  167856
#  187722
#  199618
#  210721
#  221322
#  240630
#  258477
#  270838
#  288030
#
# Disc length: 4083 seconds
#
# Revision: 0
# Processed by: cddbd v1.5.1PL2 Copyright (c) Steve Scherf et al.
# Submitted via: Collectorz.com_Music_Collector 6.11
#
DISCID=290ff114
DTITLE=Various Artist - Compilation Album
DYEAR=1900
DGENRE=Country
TTITLE0=hank williams jr - Why Don't We Get Drunk and Screw
TTITLE1=hank williams jr - The F-Word (with Kid Rock)
TTITLE2=hank williams jr - Outlaw Women
TTITLE3=hank williams jr and don helms - Ballad of Hank Sr
TTITLE4=Hank Williams Jr and Sr - There's a Tear in My Beer
TTITLE5=Hank Williams Jr (feat Gretchen Wilson) - Outlaw Women
TTITLE6=Hank Williams Jr. - If You Don't Like Hank William
TTITLE7=Hank Williams Jr. - Family Tradition
TTITLE8=Hank Williams Jr. - Whiskey Bent And Hell Bound
TTITLE9=Hank Williams Jr. - Women I've Never Had
TTITLE10=Hank Williams Jr. - Old Habits
TTITLE11=Hank Williams Jr. - Kaw-Liga
TTITLE12=Hank Williams Jr. - Dixie On My Mind
TTITLE13=Hank Williams Jr. - Texas Women
TTITLE14=Hank Williams Jr. - The American Dream
TTITLE15=Hank Williams Jr. - A Country Boy Can Survive
TTITLE16=Hank Williams Jr. - All My Rowdy Friends (Have Settled Down)
TTITLE17=Hank Williams Jr. - hank williams jr - I'D RATHER BE GONE GOOD JIM BEAM DRINKING SONG.mp3
TTITLE18=Hank Williams, Jr. - Hotel Whiskey (w/ Clint Black)
TTITLE19=Hank Williams, Jr. - Long Haired Country Boy
EXTD=
EXTT0=
EXTT1=
EXTT2=
EXTT3=
EXTT4=
EXTT5=
EXTT6=
EXTT7=
EXTT8=
EXTT9=
EXTT10=
EXTT11=
EXTT12=
EXTT13=
EXTT14=
EXTT15=
EXTT16=
EXTT17=
EXTT18=
EXTT19=
PLAYORDER=
